<svg width="300" height="300" viewBox="0 0 300 300" fill="none" xmlns="http://www.w3.org/2000/svg">
<path d="M187.49 210.87H47.81L37 116H176.68L187.49 210.87Z" fill="#A6A6A6"/>
<path d="M179.88 204.51H53.97L44.61 122.37H170.52L179.88 204.51Z" fill="#37474F"/>
<path d="M107.11 166.29L105.83 167.81L93.2 156.91L94.49 155.39L107.11 166.29Z" fill="#407BFF"/>
<path d="M103.86 155.39L105.63 156.91L96.45 167.81L94.69 166.29L103.86 155.39Z" fill="#407BFF"/>
<path d="M134.1 166.29L132.82 167.81L120.19 156.91L121.48 155.39L134.1 166.29Z" fill="#407BFF"/>
<path d="M130.85 155.39L132.62 156.91L123.44 167.81L121.68 166.29L130.85 155.39Z" fill="#407BFF"/>
<path d="M91.59 176.76L91.25 174.61H140.18L140.52 176.76H91.59Z" fill="#407BFF"/>
<path d="M228.48 204.51H48.79V210.87H228.48V204.51Z" fill="#A6A6A6"/>
<path d="M243.65 204.51H87.81V210.87H243.65V204.51Z" fill="#C7C7C7"/>
<path d="M170.97 126.35L170.52 122.37H44.61L45.06 126.35H170.97Z" fill="#263238"/>
<path d="M55.21 124.36C55.2265 124.62 55.3371 124.865 55.5212 125.049C55.7053 125.233 55.9502 125.343 56.21 125.36C56.3307 125.355 56.4488 125.324 56.5563 125.269C56.6638 125.214 56.7579 125.136 56.8322 125.041C56.9064 124.946 56.959 124.836 56.9863 124.718C57.0136 124.6 57.0148 124.478 56.99 124.36C56.9714 124.101 56.8601 123.857 56.6764 123.674C56.4928 123.49 56.2491 123.379 55.99 123.36C55.8693 123.365 55.7511 123.396 55.6437 123.451C55.5362 123.506 55.4421 123.584 55.3678 123.679C55.2935 123.774 55.2409 123.884 55.2137 124.002C55.1864 124.12 55.1852 124.242 55.21 124.36Z" fill="#C7C7C7"/>
<path d="M51.56 124.36C51.5785 124.619 51.6899 124.863 51.8735 125.046C52.0572 125.23 52.3009 125.341 52.56 125.36C52.6806 125.355 52.7988 125.324 52.9063 125.269C53.0137 125.214 53.1079 125.136 53.1821 125.041C53.2564 124.946 53.309 124.836 53.3363 124.718C53.3635 124.6 53.3648 124.478 53.34 124.36C53.3214 124.101 53.2101 123.857 53.0264 123.674C52.8427 123.49 52.599 123.379 52.34 123.36C52.2193 123.365 52.1011 123.396 51.9937 123.451C51.8862 123.506 51.792 123.584 51.7178 123.679C51.6435 123.774 51.5909 123.884 51.5637 124.002C51.5364 124.12 51.5351 124.242 51.56 124.36Z" fill="white"/>
<path d="M47.92 124.36C47.9386 124.619 48.0499 124.863 48.2336 125.046C48.4172 125.23 48.6609 125.341 48.92 125.36C49.0415 125.357 49.1608 125.327 49.2695 125.272C49.3782 125.218 49.4736 125.14 49.5489 125.045C49.6243 124.949 49.6778 124.839 49.7056 124.72C49.7334 124.602 49.7349 124.479 49.71 124.36C49.6894 124.102 49.5775 123.859 49.3942 123.676C49.2109 123.493 48.9684 123.381 48.71 123.36C48.5885 123.363 48.4692 123.393 48.3605 123.448C48.2518 123.502 48.1564 123.58 48.0811 123.675C48.0057 123.771 47.9522 123.881 47.9244 124C47.8966 124.118 47.8951 124.241 47.92 124.36Z" fill="#407BFF"/>
<path d="M220.863 196.851C221.229 195.072 221.798 193.342 222.56 191.693C223.31 190.023 224.28 188.46 225.444 187.046C226.623 185.585 228.148 184.442 229.881 183.719C231.668 183.048 233.638 183.048 235.426 183.719C237.225 184.464 238.659 185.886 239.419 187.678C239.819 188.548 240.074 189.477 240.173 190.429C240.297 191.413 240.187 192.413 239.852 193.346C239.653 193.867 239.301 194.316 238.842 194.633C238.591 194.796 238.307 194.902 238.011 194.943C237.698 194.994 237.377 194.964 237.079 194.854C236.559 194.607 236.14 194.188 235.892 193.668C235.665 193.23 235.487 192.769 235.36 192.292C234.921 190.479 234.763 188.608 234.894 186.747C235.097 183.028 236.205 179.414 238.121 176.221C239.107 174.621 240.409 173.239 241.948 172.161C243.492 171.079 245.278 170.393 247.15 170.165C248.983 169.824 250.863 169.824 252.696 170.165C254.508 170.529 256.248 171.192 257.842 172.128C260.964 174.037 263.584 176.665 265.484 179.792C263.43 176.822 260.726 174.36 257.576 172.594C254.46 170.843 250.823 170.261 247.316 170.952C245.593 171.246 243.955 171.913 242.518 172.908C241.081 173.902 239.879 175.2 238.998 176.709C237.206 179.772 236.186 183.224 236.025 186.769C235.882 188.516 236.009 190.274 236.402 191.982C236.602 192.769 237.001 193.657 237.511 193.867C237.647 193.893 237.786 193.893 237.922 193.867C238.071 193.845 238.215 193.792 238.343 193.712C238.63 193.506 238.85 193.221 238.976 192.891C239.43 191.257 239.296 189.516 238.596 187.971C237.897 186.426 236.677 185.176 235.149 184.44C233.555 183.77 231.77 183.711 230.136 184.273C228.49 184.915 227.028 185.951 225.876 187.29C223.491 190.048 221.775 193.32 220.863 196.851Z" fill="#263238"/>
<path d="M56.5544 121.862C53.0317 121.088 49.3792 121.126 45.8733 121.973C44.1592 122.376 42.5707 123.195 41.2482 124.357C39.9734 125.543 39.1832 127.159 39.0299 128.894C38.9504 130.605 39.5165 132.283 40.6159 133.596C41.6282 134.953 43.1195 135.874 44.7863 136.17C45.1378 136.216 45.4951 136.15 45.8067 135.981C45.9398 135.909 46.0539 135.806 46.1395 135.682C46.2213 135.57 46.2746 135.441 46.2948 135.304C46.2948 134.783 45.7291 134.018 45.108 133.485C43.7836 132.346 42.286 131.425 40.6714 130.757C37.4525 129.27 33.9191 128.592 30.3785 128.783C28.6415 128.878 26.9466 129.354 25.4134 130.176C23.8803 130.998 22.5462 132.147 21.5054 133.541C19.2822 136.335 18.1332 139.833 18.2667 143.401C18.3801 147.009 19.3212 150.542 21.0173 153.727C19.1018 150.607 17.9608 147.074 17.6899 143.423C17.5884 141.579 17.7945 139.732 18.2999 137.955C18.8214 136.171 19.6674 134.498 20.7955 133.02C21.8589 131.464 23.2868 130.192 24.9548 129.315C26.6209 128.442 28.4475 127.917 30.3231 127.773C34.0373 127.541 37.7523 128.214 41.1483 129.737C42.8689 130.475 44.4632 131.478 45.8733 132.709C46.2442 133.036 46.5722 133.409 46.8493 133.818C47.1969 134.277 47.3805 134.84 47.3706 135.415C47.3262 135.721 47.212 136.011 47.0369 136.265C46.8619 136.519 46.6307 136.729 46.3613 136.879C45.8687 137.142 45.3072 137.247 44.7531 137.179C43.7691 137.057 42.8292 136.7 42.0135 136.136C41.2121 135.61 40.5005 134.959 39.9061 134.206C38.6683 132.704 38.0672 130.778 38.2313 128.838C38.4273 126.922 39.3286 125.147 40.7601 123.858C42.1918 122.657 43.8991 121.83 45.7291 121.451C47.522 121.074 49.3565 120.932 51.1861 121.03C53.0016 121.099 54.803 121.378 56.5544 121.862Z" fill="#263238"/>
<path d="M198.458 158.474C198.436 156.995 198.72 155.526 199.292 154.161C199.865 152.796 200.714 151.565 201.786 150.544C202.878 149.492 204.229 148.746 205.701 148.381C207.194 148.043 208.749 148.096 210.215 148.537C211.667 148.97 213.017 149.691 214.186 150.655C215.387 151.603 216.364 152.803 217.048 154.171C217.445 154.919 217.582 155.777 217.436 156.611C217.316 157.097 217.009 157.515 216.582 157.776C216.194 158.016 215.751 158.153 215.295 158.175C214.818 158.177 214.353 158.029 213.964 157.754C213.618 157.498 213.324 157.178 213.099 156.811C212.698 156.125 212.421 155.374 212.278 154.592C212.012 153.103 212.012 151.579 212.278 150.089C212.501 148.603 212.931 147.154 213.554 145.786C214.779 142.99 217.019 140.763 219.821 139.552C221.227 138.971 222.735 138.673 224.257 138.676C225.753 138.691 227.233 138.992 228.616 139.564C229.973 140.136 231.239 140.902 232.376 141.837C233.523 142.74 234.548 143.788 235.426 144.954C233.521 142.787 231.115 141.119 228.416 140.096C227.1 139.596 225.698 139.362 224.29 139.41C222.883 139.458 221.499 139.785 220.22 140.373C217.664 141.549 215.636 143.632 214.53 146.218C213.368 148.772 212.982 151.611 213.421 154.382C213.522 155.038 213.744 155.67 214.075 156.245C214.186 156.493 214.363 156.707 214.585 156.863C214.808 157.019 215.068 157.112 215.34 157.132C215.614 157.12 215.88 157.04 216.116 156.9C216.216 156.841 216.304 156.763 216.372 156.669C216.441 156.576 216.49 156.469 216.515 156.356C216.606 155.75 216.497 155.131 216.205 154.592C214.911 152.115 212.69 150.249 210.027 149.402C208.706 148.975 207.298 148.887 205.934 149.147C204.564 149.421 203.293 150.057 202.252 150.988C201.157 151.924 200.258 153.067 199.607 154.352C198.956 155.637 198.566 157.038 198.458 158.474Z" fill="#263238"/>
<path d="M282.188 194.71C283.6 192.805 284.415 190.524 284.53 188.155C284.646 185.786 284.056 183.437 282.836 181.403C281.616 179.37 279.82 177.744 277.676 176.731C275.532 175.718 273.136 175.363 270.79 175.712C268.444 176.061 266.255 177.098 264.498 178.692C262.742 180.285 261.498 182.364 260.923 184.664C260.348 186.965 260.468 189.384 261.268 191.617C262.068 193.849 263.512 195.794 265.418 197.206C267.972 199.099 271.174 199.899 274.319 199.431C277.464 198.963 280.295 197.265 282.188 194.71ZM277.064 190.906C276.404 191.797 275.496 192.472 274.453 192.846C273.41 193.22 272.279 193.276 271.204 193.008C270.129 192.739 269.158 192.158 268.413 191.337C267.669 190.517 267.184 189.494 267.021 188.398C266.858 187.302 267.024 186.182 267.497 185.18C267.971 184.178 268.731 183.339 269.681 182.77C270.632 182.2 271.73 181.925 272.837 181.979C273.943 182.034 275.009 182.415 275.899 183.075C277.089 183.962 277.879 185.283 278.097 186.75C278.315 188.218 277.944 189.712 277.064 190.906Z" fill="#A6A6A6"/>
<path d="M267.558 198.171L263.854 195.431L262.112 198.204L265.418 200.644L267.558 198.171Z" fill="#A6A6A6"/>
<path d="M261.436 191.693L260.759 187.135L257.576 187.867L258.175 191.926L261.436 191.693Z" fill="#A6A6A6"/>
<path d="M261.691 182.787L264.441 179.082L261.669 177.341L259.217 180.635L261.691 182.787Z" fill="#A6A6A6"/>
<path d="M268.168 176.664L272.727 175.988L272.006 172.794L267.946 173.392L268.168 176.664Z" fill="#A6A6A6"/>
<path d="M277.086 176.908L280.779 179.659L282.52 176.886L279.237 174.446L277.086 176.908Z" fill="#A6A6A6"/>
<path d="M283.208 183.397L283.885 187.956L287.068 187.224L286.469 183.164L283.208 183.397Z" fill="#A6A6A6"/>
<path d="M282.953 192.303L280.202 196.008L282.975 197.749L285.426 194.455L282.953 192.303Z" fill="#A6A6A6"/>
<path d="M276.476 198.426L271.906 199.102L272.638 202.297L276.697 201.698L276.476 198.426Z" fill="#A6A6A6"/>
<path d="M268.268 188.144L270.808 191.361L274.867 190.751L276.376 186.946L273.836 183.73L269.776 184.329L268.268 188.144ZM273.093 186.503C273.298 186.656 273.454 186.867 273.539 187.109C273.625 187.351 273.637 187.612 273.574 187.861C273.511 188.11 273.376 188.334 273.185 188.506C272.995 188.677 272.758 188.789 272.504 188.826C272.25 188.863 271.991 188.824 271.759 188.714C271.528 188.604 271.334 188.428 271.202 188.208C271.071 187.988 271.007 187.734 271.02 187.478C271.033 187.221 271.121 186.975 271.274 186.769C271.481 186.494 271.788 186.312 272.129 186.263C272.469 186.213 272.815 186.299 273.093 186.503Z" fill="#A6A6A6"/>
<path d="M238.82 144.045C238.451 143.804 238.018 143.679 237.577 143.686C237.136 143.693 236.708 143.831 236.346 144.082C235.984 144.334 235.705 144.687 235.544 145.098C235.384 145.509 235.35 145.958 235.446 146.388C235.542 146.818 235.764 147.21 236.084 147.513C236.404 147.817 236.807 148.018 237.241 148.092C237.676 148.165 238.123 148.107 238.524 147.926C238.926 147.744 239.265 147.447 239.497 147.072C239.802 146.579 239.902 145.986 239.776 145.421C239.65 144.855 239.306 144.361 238.82 144.045ZM239.275 146.928C239.072 147.252 238.778 147.509 238.429 147.666C238.08 147.822 237.692 147.872 237.315 147.808C236.938 147.743 236.589 147.569 236.311 147.306C236.034 147.043 235.841 146.703 235.756 146.33C235.672 145.957 235.7 145.568 235.838 145.211C235.976 144.854 236.216 144.546 236.529 144.326C236.842 144.106 237.213 143.984 237.595 143.975C237.977 143.967 238.354 144.072 238.676 144.277C238.89 144.412 239.075 144.587 239.221 144.793C239.366 144.999 239.47 145.232 239.526 145.479C239.581 145.725 239.588 145.98 239.545 146.228C239.502 146.477 239.41 146.715 239.275 146.928ZM238.82 144.045C238.451 143.804 238.018 143.679 237.577 143.686C237.136 143.693 236.708 143.831 236.346 144.082C235.984 144.334 235.705 144.687 235.544 145.098C235.384 145.509 235.35 145.958 235.446 146.388C235.542 146.818 235.764 147.21 236.084 147.513C236.404 147.817 236.807 148.018 237.241 148.092C237.676 148.165 238.123 148.107 238.524 147.926C238.926 147.744 239.265 147.447 239.497 147.072C239.802 146.579 239.902 145.986 239.776 145.421C239.65 144.855 239.306 144.361 238.82 144.045ZM239.275 146.928C239.072 147.252 238.778 147.509 238.429 147.666C238.08 147.822 237.692 147.872 237.315 147.808C236.938 147.743 236.589 147.569 236.311 147.306C236.034 147.043 235.841 146.703 235.756 146.33C235.672 145.957 235.7 145.568 235.838 145.211C235.976 144.854 236.216 144.546 236.529 144.326C236.842 144.106 237.213 143.984 237.595 143.975C237.977 143.967 238.354 144.072 238.676 144.277C238.89 144.412 239.075 144.587 239.221 144.793C239.366 144.999 239.47 145.232 239.526 145.479C239.581 145.725 239.588 145.98 239.545 146.228C239.502 146.477 239.41 146.715 239.275 146.928ZM238.82 144.045C238.451 143.804 238.018 143.679 237.577 143.686C237.136 143.693 236.708 143.831 236.346 144.082C235.984 144.334 235.705 144.687 235.544 145.098C235.384 145.509 235.35 145.958 235.446 146.388C235.542 146.818 235.764 147.21 236.084 147.513C236.404 147.817 236.807 148.018 237.241 148.092C237.676 148.165 238.123 148.107 238.524 147.926C238.926 147.744 239.265 147.447 239.497 147.072C239.802 146.579 239.902 145.986 239.776 145.421C239.65 144.855 239.306 144.361 238.82 144.045ZM239.275 146.928C239.072 147.252 238.778 147.509 238.429 147.666C238.08 147.822 237.692 147.872 237.315 147.808C236.938 147.743 236.589 147.569 236.311 147.306C236.034 147.043 235.841 146.703 235.756 146.33C235.672 145.957 235.7 145.568 235.838 145.211C235.976 144.854 236.216 144.546 236.529 144.326C236.842 144.106 237.213 143.984 237.595 143.975C237.977 143.967 238.354 144.072 238.676 144.277C238.89 144.412 239.075 144.587 239.221 144.793C239.366 144.999 239.47 145.232 239.526 145.479C239.581 145.725 239.588 145.98 239.545 146.228C239.502 146.477 239.41 146.715 239.275 146.928ZM240.107 141.993C239.334 141.508 238.435 141.263 237.523 141.289C236.611 141.315 235.727 141.611 234.984 142.139C234.24 142.667 233.669 143.404 233.344 144.256C233.019 145.109 232.954 146.038 233.157 146.928C233.36 147.817 233.822 148.627 234.484 149.253C235.147 149.88 235.981 150.297 236.88 150.45C237.78 150.603 238.704 150.486 239.537 150.114C240.37 149.742 241.074 149.131 241.56 148.359C242.195 147.327 242.398 146.087 242.127 144.906C241.855 143.725 241.129 142.698 240.107 142.048V141.993ZM239.785 147.25C239.518 147.672 239.131 148.005 238.674 148.208C238.217 148.41 237.71 148.473 237.217 148.387C236.725 148.302 236.269 148.072 235.907 147.728C235.544 147.383 235.293 146.939 235.183 146.452C235.073 145.964 235.11 145.455 235.289 144.988C235.468 144.522 235.782 144.119 236.19 143.83C236.599 143.542 237.083 143.381 237.583 143.368C238.082 143.354 238.575 143.49 238.998 143.756C239.279 143.933 239.523 144.165 239.715 144.436C239.907 144.708 240.043 145.015 240.117 145.34C240.19 145.664 240.198 146 240.141 146.328C240.084 146.656 239.963 146.969 239.785 147.25ZM239.497 147.072C239.737 146.702 239.861 146.269 239.853 145.827C239.845 145.386 239.706 144.957 239.453 144.596C239.2 144.234 238.846 143.956 238.434 143.797C238.022 143.638 237.572 143.605 237.142 143.704C236.712 143.802 236.321 144.026 236.018 144.347C235.716 144.669 235.517 145.073 235.446 145.509C235.375 145.945 235.435 146.391 235.619 146.792C235.804 147.193 236.103 147.53 236.48 147.76C236.973 148.061 237.565 148.158 238.128 148.029C238.692 147.901 239.183 147.557 239.497 147.072ZM239.275 146.928C239.072 147.252 238.778 147.509 238.429 147.666C238.08 147.822 237.692 147.872 237.315 147.808C236.938 147.743 236.589 147.569 236.311 147.306C236.034 147.043 235.841 146.703 235.756 146.33C235.672 145.957 235.7 145.568 235.838 145.211C235.976 144.854 236.216 144.546 236.529 144.326C236.842 144.106 237.213 143.984 237.595 143.975C237.977 143.967 238.354 144.072 238.676 144.277C238.89 144.412 239.075 144.587 239.221 144.793C239.366 144.999 239.47 145.232 239.526 145.479C239.581 145.725 239.588 145.98 239.545 146.228C239.502 146.477 239.41 146.715 239.275 146.928ZM238.82 144.045C238.451 143.804 238.018 143.679 237.577 143.686C237.136 143.693 236.708 143.831 236.346 144.082C235.984 144.334 235.705 144.687 235.544 145.098C235.384 145.509 235.35 145.958 235.446 146.388C235.542 146.818 235.764 147.21 236.084 147.513C236.404 147.817 236.807 148.018 237.241 148.092C237.676 148.165 238.123 148.107 238.524 147.926C238.926 147.744 239.265 147.447 239.497 147.072C239.802 146.579 239.902 145.986 239.776 145.421C239.65 144.855 239.306 144.361 238.82 144.045ZM239.275 146.928C239.072 147.252 238.778 147.509 238.429 147.666C238.08 147.822 237.692 147.872 237.315 147.808C236.938 147.743 236.589 147.569 236.311 147.306C236.034 147.043 235.841 146.703 235.756 146.33C235.672 145.957 235.7 145.568 235.838 145.211C235.976 144.854 236.216 144.546 236.529 144.326C236.842 144.106 237.213 143.984 237.595 143.975C237.977 143.967 238.354 144.072 238.676 144.277C238.89 144.412 239.075 144.587 239.221 144.793C239.366 144.999 239.47 145.232 239.526 145.479C239.581 145.725 239.588 145.98 239.545 146.228C239.502 146.477 239.41 146.715 239.275 146.928ZM238.82 144.045C238.451 143.804 238.018 143.679 237.577 143.686C237.136 143.693 236.708 143.831 236.346 144.082C235.984 144.334 235.705 144.687 235.544 145.098C235.384 145.509 235.35 145.958 235.446 146.388C235.542 146.818 235.764 147.21 236.084 147.513C236.404 147.817 236.807 148.018 237.241 148.092C237.676 148.165 238.123 148.107 238.524 147.926C238.926 147.744 239.265 147.447 239.497 147.072C239.802 146.579 239.902 145.986 239.776 145.421C239.65 144.855 239.306 144.361 238.82 144.045ZM239.275 146.928C239.072 147.252 238.778 147.509 238.429 147.666C238.08 147.822 237.692 147.872 237.315 147.808C236.938 147.743 236.589 147.569 236.311 147.306C236.034 147.043 235.841 146.703 235.756 146.33C235.672 145.957 235.7 145.568 235.838 145.211C235.976 144.854 236.216 144.546 236.529 144.326C236.842 144.106 237.213 143.984 237.595 143.975C237.977 143.967 238.354 144.072 238.676 144.277C238.89 144.412 239.075 144.587 239.221 144.793C239.366 144.999 239.47 145.232 239.526 145.479C239.581 145.725 239.588 145.98 239.545 146.228C239.502 146.477 239.41 146.715 239.275 146.928Z" fill="#A6A6A6"/>
<path d="M236.047 150.123L234.539 149.18L233.951 150.289L235.293 151.132L236.047 150.123Z" fill="#A6A6A6"/>
<path d="M233.496 147.816L233.108 146.085L231.899 146.462L232.254 148.004L233.496 147.816Z" fill="#A6A6A6"/>
<path d="M233.33 144.388L234.273 142.88L233.164 142.292L232.321 143.634L233.33 144.388Z" fill="#A6A6A6"/>
<path d="M235.637 141.848L237.367 141.449L236.99 140.251L235.459 140.595L235.637 141.848Z" fill="#A6A6A6"/>
<path d="M239.064 141.671L240.573 142.625L241.16 141.505L239.818 140.662L239.064 141.671Z" fill="#A6A6A6"/>
<path d="M241.604 143.978L242.003 145.719L243.201 145.342L242.857 143.801L241.604 143.978Z" fill="#A6A6A6"/>
<path d="M241.782 147.416L240.828 148.914L241.948 149.502L242.791 148.159L241.782 147.416Z" fill="#A6A6A6"/>
<path d="M239.475 149.956L237.733 150.344L238.11 151.553L239.652 151.199L239.475 149.956Z" fill="#A6A6A6"/>
<path d="M21.5054 154.348C20.8903 154.152 20.2307 154.142 19.6102 154.321C18.9897 154.499 18.4362 154.858 18.0198 155.352C17.6035 155.845 17.343 156.452 17.2715 157.093C17.2 157.735 17.3206 158.384 17.6181 158.957C17.9155 159.53 18.3764 160.002 18.9424 160.313C19.5084 160.623 20.1539 160.759 20.7971 160.703C21.4404 160.647 22.0524 160.4 22.5556 159.996C23.0589 159.591 23.4307 159.046 23.6238 158.43C23.8817 157.608 23.8036 156.717 23.4066 155.952C23.0097 155.187 22.3261 154.611 21.5054 154.348ZM23.2467 158.308C23.0774 158.849 22.7514 159.327 22.31 159.682C21.8687 160.037 21.3318 160.253 20.7675 160.303C20.2032 160.353 19.6368 160.234 19.1401 159.962C18.6434 159.689 18.2387 159.276 17.9773 158.773C17.7159 158.27 17.6095 157.702 17.6717 157.139C17.7339 156.575 17.9618 156.043 18.3266 155.61C18.6913 155.177 19.1765 154.861 19.7207 154.704C20.2649 154.546 20.8435 154.554 21.3834 154.726C21.7413 154.838 22.0736 155.02 22.3611 155.261C22.6486 155.502 22.8857 155.797 23.0588 156.13C23.2319 156.463 23.3377 156.827 23.3699 157.2C23.4021 157.574 23.3603 157.951 23.2467 158.308ZM21.5054 154.348C20.8903 154.152 20.2307 154.142 19.6102 154.321C18.9897 154.499 18.4362 154.858 18.0198 155.352C17.6035 155.845 17.343 156.452 17.2715 157.093C17.2 157.735 17.3206 158.384 17.6181 158.957C17.9155 159.53 18.3764 160.002 18.9424 160.313C19.5084 160.623 20.1539 160.759 20.7971 160.703C21.4404 160.647 22.0524 160.4 22.5556 159.996C23.0589 159.591 23.4307 159.046 23.6238 158.43C23.8817 157.608 23.8036 156.717 23.4066 155.952C23.0097 155.187 22.3261 154.611 21.5054 154.348ZM23.2467 158.308C23.0774 158.849 22.7514 159.327 22.31 159.682C21.8687 160.037 21.3318 160.253 20.7675 160.303C20.2032 160.353 19.6368 160.234 19.1401 159.962C18.6434 159.689 18.2387 159.276 17.9773 158.773C17.7159 158.27 17.6095 157.702 17.6717 157.139C17.7339 156.575 17.9618 156.043 18.3266 155.61C18.6913 155.177 19.1765 154.861 19.7207 154.704C20.2649 154.546 20.8435 154.554 21.3834 154.726C21.7413 154.838 22.0736 155.02 22.3611 155.261C22.6486 155.502 22.8857 155.797 23.0588 156.13C23.2319 156.463 23.3377 156.827 23.3699 157.2C23.4021 157.574 23.3603 157.951 23.2467 158.308ZM21.5054 154.348C20.8903 154.152 20.2307 154.142 19.6102 154.321C18.9897 154.499 18.4362 154.858 18.0198 155.352C17.6035 155.845 17.343 156.452 17.2715 157.093C17.2 157.735 17.3206 158.384 17.6181 158.957C17.9155 159.53 18.3764 160.002 18.9424 160.313C19.5084 160.623 20.1539 160.759 20.7971 160.703C21.4404 160.647 22.0524 160.4 22.5556 159.996C23.0589 159.591 23.4307 159.046 23.6238 158.43C23.8817 157.608 23.8036 156.717 23.4066 155.952C23.0097 155.187 22.3261 154.611 21.5054 154.348ZM23.2467 158.308C23.0774 158.849 22.7514 159.327 22.31 159.682C21.8687 160.037 21.3318 160.253 20.7675 160.303C20.2032 160.353 19.6368 160.234 19.1401 159.962C18.6434 159.689 18.2387 159.276 17.9773 158.773C17.7159 158.27 17.6095 157.702 17.6717 157.139C17.7339 156.575 17.9618 156.043 18.3266 155.61C18.6913 155.177 19.1765 154.861 19.7207 154.704C20.2649 154.546 20.8435 154.554 21.3834 154.726C21.7413 154.838 22.0736 155.02 22.3611 155.261C22.6486 155.502 22.8857 155.797 23.0588 156.13C23.2319 156.463 23.3377 156.827 23.3699 157.2C23.4021 157.574 23.3603 157.951 23.2467 158.308ZM22.5812 150.899C21.2878 150.482 19.8999 150.459 18.5931 150.831C17.2863 151.204 16.1195 151.956 15.2404 152.992C14.3614 154.029 13.8096 155.302 13.6549 156.653C13.5003 158.003 13.7497 159.368 14.3717 160.576C14.9936 161.785 15.9602 162.781 17.1488 163.439C18.3375 164.098 19.6948 164.389 21.049 164.276C22.4031 164.162 23.6931 163.649 24.7557 162.802C25.8182 161.955 26.6055 160.812 27.0178 159.517C27.5593 157.789 27.3971 155.917 26.5664 154.307C25.7358 152.698 24.3037 151.481 22.5812 150.921V150.899ZM24.1119 158.585C23.8873 159.294 23.458 159.92 22.878 160.384C22.2981 160.849 21.5935 161.131 20.8533 161.195C20.113 161.259 19.3703 161.103 18.7189 160.746C18.0675 160.388 17.5366 159.846 17.1933 159.187C16.8499 158.528 16.7094 157.782 16.7896 157.043C16.8698 156.305 17.1671 155.606 17.6439 155.036C18.1206 154.467 18.7556 154.051 19.4685 153.841C20.1814 153.632 20.9404 153.639 21.6496 153.86C22.6004 154.164 23.3927 154.831 23.8539 155.716C24.3152 156.601 24.4079 157.632 24.1119 158.585ZM23.6238 158.43C23.8184 157.815 23.826 157.155 23.6456 156.536C23.4652 155.916 23.1049 155.364 22.6105 154.949C22.1161 154.534 21.5096 154.275 20.868 154.206C20.2264 154.136 19.5785 154.258 19.0063 154.556C18.4341 154.855 17.9633 155.316 17.6536 155.883C17.3439 156.449 17.2093 157.094 17.2667 157.737C17.3241 158.38 17.5709 158.991 17.976 159.494C18.3811 159.996 18.9261 160.367 19.5422 160.56C19.95 160.689 20.3793 160.736 20.8053 160.698C21.2314 160.661 21.6459 160.54 22.0251 160.342C22.4043 160.144 22.7408 159.874 23.0151 159.546C23.2894 159.217 23.4963 158.838 23.6238 158.43ZM23.2467 158.308C23.0774 158.849 22.7514 159.327 22.31 159.682C21.8687 160.037 21.3318 160.253 20.7675 160.303C20.2032 160.353 19.6368 160.234 19.1401 159.962C18.6434 159.689 18.2387 159.276 17.9773 158.773C17.7159 158.27 17.6095 157.702 17.6717 157.139C17.7339 156.575 17.9618 156.043 18.3266 155.61C18.6913 155.177 19.1765 154.861 19.7207 154.704C20.2649 154.546 20.8435 154.554 21.3834 154.726C21.7413 154.838 22.0736 155.02 22.3611 155.261C22.6486 155.502 22.8857 155.797 23.0588 156.13C23.2319 156.463 23.3377 156.827 23.3699 157.2C23.4021 157.574 23.3603 157.951 23.2467 158.308ZM21.5054 154.348C20.8903 154.152 20.2307 154.142 19.6102 154.321C18.9897 154.499 18.4362 154.858 18.0198 155.352C17.6035 155.845 17.343 156.452 17.2715 157.093C17.2 157.735 17.3206 158.384 17.6181 158.957C17.9155 159.53 18.3764 160.002 18.9424 160.313C19.5084 160.623 20.1539 160.759 20.7971 160.703C21.4404 160.647 22.0524 160.4 22.5556 159.996C23.0589 159.591 23.4307 159.046 23.6238 158.43C23.8817 157.608 23.8036 156.717 23.4066 155.952C23.0097 155.187 22.3261 154.611 21.5054 154.348ZM23.2467 158.308C23.0774 158.849 22.7514 159.327 22.31 159.682C21.8687 160.037 21.3318 160.253 20.7675 160.303C20.2032 160.353 19.6368 160.234 19.1401 159.962C18.6434 159.689 18.2387 159.276 17.9773 158.773C17.7159 158.27 17.6095 157.702 17.6717 157.139C17.7339 156.575 17.9618 156.043 18.3266 155.61C18.6913 155.177 19.1765 154.861 19.7207 154.704C20.2649 154.546 20.8435 154.554 21.3834 154.726C21.7413 154.838 22.0736 155.02 22.3611 155.261C22.6486 155.502 22.8857 155.797 23.0588 156.13C23.2319 156.463 23.3377 156.827 23.3699 157.2C23.4021 157.574 23.3603 157.951 23.2467 158.308ZM21.5054 154.348C20.8903 154.152 20.2307 154.142 19.6102 154.321C18.9897 154.499 18.4362 154.858 18.0198 155.352C17.6035 155.845 17.343 156.452 17.2715 157.093C17.2 157.735 17.3206 158.384 17.6181 158.957C17.9155 159.53 18.3764 160.002 18.9424 160.313C19.5084 160.623 20.1539 160.759 20.7971 160.703C21.4404 160.647 22.0524 160.4 22.5556 159.996C23.0589 159.591 23.4307 159.046 23.6238 158.43C23.8817 157.608 23.8036 156.717 23.4066 155.952C23.0097 155.187 22.3261 154.611 21.5054 154.348ZM23.2467 158.308C23.0774 158.849 22.7514 159.327 22.31 159.682C21.8687 160.037 21.3318 160.253 20.7675 160.303C20.2032 160.353 19.6368 160.234 19.1401 159.962C18.6434 159.689 18.2387 159.276 17.9773 158.773C17.7159 158.27 17.6095 157.702 17.6717 157.139C17.7339 156.575 17.9618 156.043 18.3266 155.61C18.6913 155.177 19.1765 154.861 19.7207 154.704C20.2649 154.546 20.8435 154.554 21.3834 154.726C21.7413 154.838 22.0736 155.02 22.3611 155.261C22.6486 155.502 22.8857 155.797 23.0588 156.13C23.2319 156.463 23.3377 156.827 23.3699 157.2C23.4021 157.574 23.3603 157.951 23.2467 158.308Z" fill="#A6A6A6"/>
<path d="M19.7973 164.131L17.2796 163.333L16.8581 165.163L19.0986 165.861L19.7973 164.131Z" fill="#A6A6A6"/>
<path d="M15.272 161.769L14.0519 159.428L12.4658 160.415L13.5528 162.501L15.272 161.769Z" fill="#A6A6A6"/>
<path d="M13.7414 156.9L14.5399 154.382L12.7099 153.96L12 156.201L13.7414 156.9Z" fill="#A6A6A6"/>
<path d="M16.1039 152.374L18.4442 151.154L17.4459 149.568L15.3718 150.644L16.1039 152.374Z" fill="#A6A6A6"/>
<path d="M20.973 150.844L23.4908 151.631L23.9123 149.812L21.6718 149.102L20.973 150.844Z" fill="#A6A6A6"/>
<path d="M25.4983 153.206L26.7183 155.546L28.3044 154.548L27.2175 152.463L25.4983 153.206Z" fill="#A6A6A6"/>
<path d="M27.0289 158.064L26.2303 160.582L28.0604 161.003L28.7703 158.774L27.0289 158.064Z" fill="#A6A6A6"/>
<path d="M24.6665 162.589L22.3262 163.809L23.3244 165.407L25.3985 164.32L24.6665 162.589Z" fill="#A6A6A6"/>
<path d="M257 211H23V268H257V211Z" fill="#263238"/>
<path d="M268.03 218H53.73V262.14H268.03V218Z" fill="#37474F"/>
<path d="M12 262.14H53.73L53.73 218H12L12 262.14Z" fill="#455A64"/>
<path d="M193.73 225.29H61.78V229.02H193.73V225.29Z" fill="#455A64"/>
<path d="M193.73 231.75H61.78V235.48H193.73V231.75Z" fill="#455A64"/>
<path d="M193.73 238.2H61.78V241.93H193.73V238.2Z" fill="#455A64"/>
<path d="M193.73 244.66H61.78V248.39H193.73V244.66Z" fill="#455A64"/>
<path d="M193.73 251.12H61.78V254.85H193.73V251.12Z" fill="#455A64"/>
<path d="M213.57 228.98C213.572 229.712 213.357 230.429 212.951 231.038C212.546 231.648 211.969 232.124 211.293 232.406C210.617 232.687 209.873 232.762 209.154 232.62C208.436 232.479 207.776 232.127 207.257 231.61C206.739 231.093 206.385 230.434 206.242 229.716C206.098 228.998 206.171 228.253 206.451 227.576C206.73 226.9 207.205 226.321 207.813 225.914C208.422 225.507 209.138 225.29 209.87 225.29C210.85 225.29 211.789 225.678 212.483 226.37C213.176 227.062 213.567 228 213.57 228.98Z" fill="#407BFF"/>
<path d="M225.4 228.69C225.402 229.422 225.187 230.139 224.781 230.748C224.376 231.358 223.799 231.834 223.123 232.115C222.447 232.397 221.703 232.472 220.984 232.33C220.266 232.188 219.606 231.837 219.087 231.32C218.569 230.803 218.215 230.144 218.072 229.426C217.928 228.708 218.001 227.963 218.281 227.286C218.56 226.61 219.035 226.031 219.643 225.624C220.252 225.217 220.968 225 221.7 225C222.68 225 223.619 225.388 224.313 226.08C225.006 226.772 225.397 227.71 225.4 228.69Z" fill="#407BFF"/>
<path d="M237.93 228.98C237.932 229.712 237.717 230.429 237.311 231.038C236.906 231.648 236.329 232.124 235.653 232.406C234.977 232.687 234.233 232.762 233.514 232.62C232.796 232.479 232.136 232.127 231.617 231.61C231.099 231.093 230.745 230.434 230.602 229.716C230.458 228.998 230.531 228.253 230.811 227.576C231.09 226.9 231.565 226.321 232.173 225.914C232.782 225.507 233.498 225.29 234.23 225.29C235.21 225.29 236.149 225.678 236.843 226.37C237.536 227.062 237.927 228 237.93 228.98Z" fill="#263238"/>
<path d="M237.4 251.69C237.402 252.422 237.187 253.139 236.781 253.748C236.376 254.358 235.799 254.834 235.123 255.115C234.447 255.397 233.703 255.472 232.984 255.33C232.266 255.188 231.606 254.837 231.087 254.32C230.569 253.803 230.215 253.144 230.072 252.426C229.928 251.708 230.001 250.963 230.281 250.286C230.56 249.61 231.035 249.031 231.643 248.624C232.252 248.217 232.968 248 233.7 248C234.68 248 235.619 248.388 236.313 249.08C237.006 249.772 237.397 250.71 237.4 251.69Z" fill="#263238"/>
<path d="M250.11 228.98C250.112 229.713 249.896 230.429 249.491 231.039C249.085 231.649 248.507 232.125 247.831 232.406C247.154 232.688 246.409 232.762 245.691 232.619C244.972 232.477 244.312 232.124 243.794 231.606C243.276 231.088 242.923 230.428 242.781 229.709C242.638 228.991 242.712 228.246 242.994 227.569C243.275 226.893 243.751 226.315 244.361 225.909C244.971 225.504 245.687 225.288 246.42 225.29C247.398 225.293 248.335 225.682 249.026 226.374C249.718 227.065 250.107 228.002 250.11 228.98Z" fill="#407BFF"/>
<path d="M262.32 228.98C262.322 229.713 262.106 230.429 261.701 231.039C261.295 231.649 260.717 232.125 260.041 232.406C259.364 232.688 258.619 232.762 257.901 232.619C257.182 232.477 256.522 232.124 256.004 231.606C255.486 231.088 255.133 230.428 254.991 229.709C254.848 228.991 254.922 228.246 255.204 227.569C255.485 226.893 255.961 226.315 256.571 225.909C257.181 225.504 257.897 225.288 258.63 225.29C259.608 225.293 260.545 225.682 261.236 226.374C261.928 227.065 262.317 228.002 262.32 228.98Z" fill="white"/>
<path d="M238.4 240.69C238.402 241.423 238.186 242.139 237.781 242.749C237.375 243.359 236.797 243.835 236.121 244.116C235.444 244.398 234.699 244.472 233.981 244.329C233.262 244.187 232.602 243.834 232.084 243.316C231.566 242.798 231.213 242.138 231.071 241.419C230.928 240.701 231.002 239.956 231.284 239.279C231.565 238.603 232.041 238.025 232.651 237.619C233.261 237.214 233.977 236.998 234.71 237C235.688 237.003 236.625 237.392 237.316 238.084C238.008 238.775 238.397 239.712 238.4 240.69Z" fill="white"/>
<path d="M213.57 240.07C213.57 240.802 213.353 241.517 212.946 242.126C212.54 242.734 211.962 243.208 211.286 243.488C210.61 243.768 209.866 243.842 209.148 243.699C208.43 243.556 207.771 243.204 207.254 242.686C206.736 242.169 206.384 241.51 206.241 240.792C206.098 240.074 206.172 239.33 206.452 238.654C206.732 237.978 207.206 237.4 207.814 236.994C208.423 236.587 209.138 236.37 209.87 236.37C210.851 236.37 211.792 236.76 212.486 237.454C213.18 238.148 213.57 239.089 213.57 240.07Z" fill="#407BFF"/>
<path d="M225.75 240.07C225.75 240.802 225.533 241.517 225.126 242.126C224.72 242.734 224.142 243.208 223.466 243.488C222.79 243.768 222.046 243.842 221.328 243.699C220.61 243.556 219.951 243.204 219.434 242.686C218.916 242.169 218.564 241.51 218.421 240.792C218.278 240.074 218.352 239.33 218.632 238.654C218.912 237.978 219.386 237.4 219.994 236.994C220.603 236.587 221.318 236.37 222.05 236.37C223.031 236.37 223.972 236.76 224.666 237.454C225.36 238.148 225.75 239.089 225.75 240.07Z" fill="white"/>
<path d="M262.32 240.07C262.32 240.802 262.103 241.518 261.696 242.127C261.289 242.735 260.71 243.21 260.034 243.489C259.357 243.769 258.613 243.842 257.895 243.698C257.177 243.555 256.517 243.201 256 242.683C255.483 242.164 255.132 241.504 254.99 240.786C254.848 240.067 254.923 239.323 255.205 238.647C255.486 237.971 255.962 237.394 256.572 236.989C257.181 236.583 257.898 236.368 258.63 236.37C259.115 236.37 259.596 236.466 260.044 236.652C260.493 236.838 260.9 237.111 261.243 237.454C261.586 237.798 261.857 238.206 262.042 238.655C262.227 239.104 262.321 239.585 262.32 240.07Z" fill="#407BFF"/>
<path d="M213.57 251.15C213.572 251.882 213.357 252.599 212.951 253.208C212.546 253.818 211.969 254.294 211.293 254.576C210.617 254.857 209.873 254.932 209.154 254.79C208.436 254.648 207.776 254.297 207.257 253.78C206.739 253.263 206.385 252.604 206.242 251.886C206.098 251.168 206.171 250.423 206.451 249.746C206.73 249.07 207.205 248.491 207.813 248.084C208.422 247.677 209.138 247.46 209.87 247.46C210.85 247.46 211.789 247.848 212.483 248.54C213.176 249.232 213.567 250.17 213.57 251.15Z" fill="white"/>
<path d="M225.75 251.15C225.752 251.882 225.537 252.599 225.131 253.208C224.726 253.818 224.149 254.294 223.473 254.576C222.797 254.857 222.053 254.932 221.334 254.79C220.616 254.648 219.956 254.297 219.437 253.78C218.919 253.263 218.565 252.604 218.422 251.886C218.278 251.168 218.351 250.423 218.631 249.746C218.91 249.07 219.385 248.491 219.993 248.084C220.602 247.677 221.318 247.46 222.05 247.46C223.03 247.46 223.969 247.848 224.663 248.54C225.356 249.232 225.747 250.17 225.75 251.15Z" fill="#407BFF"/>
<path d="M250.11 251.15C250.112 251.883 249.896 252.599 249.491 253.209C249.085 253.819 248.507 254.295 247.831 254.576C247.154 254.858 246.409 254.932 245.691 254.789C244.972 254.647 244.312 254.294 243.794 253.776C243.276 253.258 242.923 252.598 242.781 251.879C242.638 251.161 242.712 250.416 242.994 249.739C243.275 249.063 243.751 248.485 244.361 248.079C244.971 247.674 245.687 247.458 246.42 247.46C247.398 247.463 248.335 247.852 249.026 248.544C249.718 249.235 250.107 250.172 250.11 251.15Z" fill="#407BFF"/>
<path d="M201.3 225.29H199.17V254.85H201.3V225.29Z" fill="#263238"/>
<path d="M68.5856 129.18L96.2212 129.385L96.3236 115.568L68.688 115.363L68.9953 73.9092L110.449 74.2165L110.346 88.0343L82.7107 87.8295L82.6083 101.647L110.244 101.852L109.937 143.306L68.4832 142.998L68.5856 129.18ZM151.438 129.795L151.746 88.3412L137.928 88.2388L137.621 129.692L151.438 129.795ZM124.213 74.3186L165.666 74.6259L165.154 143.715L123.7 143.408L124.213 74.3186ZM179.02 129.999L206.656 130.204L206.758 116.386L192.94 116.284L193.043 102.466L206.861 102.568L206.963 88.7505L179.327 88.5457L179.43 74.7279L220.883 75.0352L220.371 144.124L178.918 143.817L179.02 129.999Z" fill="#407BFF"/>
<path d="M68.5856 129.18L68.593 128.18L67.5931 128.173L67.5856 129.173L68.5856 129.18ZM96.2212 129.385L96.2138 130.385L97.2138 130.393L97.2212 129.393L96.2212 129.385ZM96.3236 115.568L97.3236 115.575L97.331 114.575L96.3311 114.568L96.3236 115.568ZM68.688 115.363L67.6881 115.355L67.6807 116.355L68.6806 116.363L68.688 115.363ZM68.9953 73.9092L69.0027 72.9093L68.0028 72.9019L67.9954 73.9018L68.9953 73.9092ZM110.449 74.2165L111.449 74.2239L111.456 73.224L110.456 73.2166L110.449 74.2165ZM110.346 88.0343L110.339 89.0343L111.339 89.0417L111.346 88.0417L110.346 88.0343ZM82.7107 87.8295L82.7181 86.8295L81.7181 86.8221L81.7107 87.8221L82.7107 87.8295ZM82.6083 101.647L81.6083 101.64L81.6009 102.64L82.6009 102.647L82.6083 101.647ZM110.244 101.852L111.244 101.86L111.251 100.86L110.251 100.852L110.244 101.852ZM109.937 143.306L109.929 144.306L110.929 144.313L110.937 143.313L109.937 143.306ZM68.4832 142.998L67.4832 142.991L67.4758 143.991L68.4758 143.998L68.4832 142.998ZM68.5856 129.18L68.5782 130.18L96.2138 130.385L96.2212 129.385L96.2286 128.385L68.593 128.18L68.5856 129.18ZM96.2212 129.385L97.2212 129.393L97.3236 115.575L96.3236 115.568L95.3237 115.56L95.2212 129.378L96.2212 129.385ZM96.3236 115.568L96.3311 114.568L68.6955 114.363L68.688 115.363L68.6806 116.363L96.3162 116.567L96.3236 115.568ZM68.688 115.363L69.688 115.37L69.9953 73.9167L68.9953 73.9092L67.9954 73.9018L67.6881 115.355L68.688 115.363ZM68.9953 73.9092L68.9879 74.9092L110.441 75.2165L110.449 74.2165L110.456 73.2166L69.0027 72.9093L68.9953 73.9092ZM110.449 74.2165L109.449 74.2091L109.346 88.0269L110.346 88.0343L111.346 88.0417L111.449 74.2239L110.449 74.2165ZM110.346 88.0343L110.354 87.0344L82.7181 86.8295L82.7107 87.8295L82.7033 88.8294L110.339 89.0343L110.346 88.0343ZM82.7107 87.8295L81.7107 87.8221L81.6083 101.64L82.6083 101.647L83.6082 101.655L83.7107 87.8369L82.7107 87.8295ZM82.6083 101.647L82.6009 102.647L110.236 102.852L110.244 101.852L110.251 100.852L82.6157 100.647L82.6083 101.647ZM110.244 101.852L109.244 101.845L108.937 143.298L109.937 143.306L110.937 143.313L111.244 101.86L110.244 101.852ZM109.937 143.306L109.944 142.306L68.4906 141.998L68.4832 142.998L68.4758 143.998L109.929 144.306L109.937 143.306ZM68.4832 142.998L69.4832 143.006L69.5856 129.188L68.5856 129.18L67.5856 129.173L67.4832 142.991L68.4832 142.998ZM151.438 129.795L151.431 130.795L152.431 130.802L152.438 129.802L151.438 129.795ZM151.746 88.3412L152.746 88.3486L152.753 87.3487L151.753 87.3413L151.746 88.3412ZM137.928 88.2388L137.935 87.2388L136.935 87.2314L136.928 88.2314L137.928 88.2388ZM137.621 129.692L136.621 129.685L136.613 130.685L137.613 130.692L137.621 129.692ZM124.213 74.3186L124.22 73.3186L123.22 73.3112L123.213 74.3111L124.213 74.3186ZM165.666 74.6259L166.666 74.6333L166.673 73.6333L165.673 73.6259L165.666 74.6259ZM165.154 143.715L165.146 144.715L166.146 144.722L166.154 143.722L165.154 143.715ZM123.7 143.408L122.7 143.4L122.693 144.4L123.693 144.408L123.7 143.408ZM151.438 129.795L152.438 129.802L152.746 88.3486L151.746 88.3412L150.746 88.3338L150.438 129.787L151.438 129.795ZM151.746 88.3412L151.753 87.3413L137.935 87.2388L137.928 88.2388L137.921 89.2388L151.738 89.3412L151.746 88.3412ZM137.928 88.2388L136.928 88.2314L136.621 129.685L137.621 129.692L138.621 129.7L138.928 88.2462L137.928 88.2388ZM137.621 129.692L137.613 130.692L151.431 130.795L151.438 129.795L151.446 128.795L137.628 128.692L137.621 129.692ZM124.213 74.3186L124.205 75.3185L165.659 75.6258L165.666 74.6259L165.673 73.6259L124.22 73.3186L124.213 74.3186ZM165.666 74.6259L164.666 74.6184L164.154 143.707L165.154 143.715L166.154 143.722L166.666 74.6333L165.666 74.6259ZM165.154 143.715L165.161 142.715L123.708 142.408L123.7 143.408L123.693 144.408L165.146 144.715L165.154 143.715ZM123.7 143.408L124.7 143.415L125.213 74.326L124.213 74.3186L123.213 74.3111L122.7 143.4L123.7 143.408ZM179.02 129.999L179.027 128.999L178.028 128.992L178.02 129.992L179.02 129.999ZM206.656 130.204L206.648 131.204L207.648 131.211L207.656 130.211L206.656 130.204ZM206.758 116.386L207.758 116.394L207.766 115.394L206.766 115.386L206.758 116.386ZM192.94 116.284L191.94 116.276L191.933 117.276L192.933 117.284L192.94 116.284ZM193.043 102.466L193.05 101.466L192.05 101.459L192.043 102.459L193.043 102.466ZM206.861 102.568L206.853 103.568L207.853 103.576L207.861 102.576L206.861 102.568ZM206.963 88.7505L207.963 88.758L207.97 87.758L206.97 87.7506L206.963 88.7505ZM179.327 88.5457L178.327 88.5383L178.32 89.5382L179.32 89.5457L179.327 88.5457ZM179.43 74.7279L179.437 73.7279L178.437 73.7205L178.43 74.7205L179.43 74.7279ZM220.883 75.0352L221.883 75.0426L221.891 74.0426L220.891 74.0352L220.883 75.0352ZM220.371 144.124L220.364 145.124L221.364 145.132L221.371 144.132L220.371 144.124ZM178.918 143.817L177.918 143.809L177.91 144.809L178.91 144.817L178.918 143.817ZM179.02 129.999L179.013 130.999L206.648 131.204L206.656 130.204L206.663 129.204L179.027 128.999L179.02 129.999ZM206.656 130.204L207.656 130.211L207.758 116.394L206.758 116.386L205.758 116.379L205.656 130.197L206.656 130.204ZM206.758 116.386L206.766 115.386L192.948 115.284L192.94 116.284L192.933 117.284L206.751 117.386L206.758 116.386ZM192.94 116.284L193.94 116.291L194.043 102.473L193.043 102.466L192.043 102.459L191.94 116.276L192.94 116.284ZM193.043 102.466L193.035 103.466L206.853 103.568L206.861 102.568L206.868 101.568L193.05 101.466L193.043 102.466ZM206.861 102.568L207.861 102.576L207.963 88.758L206.963 88.7505L205.963 88.7431L205.861 102.561L206.861 102.568ZM206.963 88.7505L206.97 87.7506L179.335 87.5457L179.327 88.5457L179.32 89.5457L206.956 89.7505L206.963 88.7505ZM179.327 88.5457L180.327 88.5531L180.43 74.7353L179.43 74.7279L178.43 74.7205L178.327 88.5383L179.327 88.5457ZM179.43 74.7279L179.422 75.7279L220.876 76.0351L220.883 75.0352L220.891 74.0352L179.437 73.7279L179.43 74.7279ZM220.883 75.0352L219.883 75.0278L219.371 144.117L220.371 144.124L221.371 144.132L221.883 75.0426L220.883 75.0352ZM220.371 144.124L220.378 143.124L178.925 142.817L178.918 143.817L178.91 144.817L220.364 145.124L220.371 144.124ZM178.918 143.817L179.918 143.824L180.02 130.007L179.02 129.999L178.02 129.992L177.918 143.809L178.918 143.817Z" fill="#2E52D7"/>
<path d="M108.031 67V51H119.563V54.5H112.375V57.25H118.969V60.75H112.375V63.5H119.531V67H108.031ZM124.577 67V51H131.483C132.671 51 133.71 51.2161 134.6 51.6484C135.491 52.0807 136.184 52.7031 136.678 53.5156C137.173 54.3281 137.421 55.3021 137.421 56.4375C137.421 57.5833 137.165 58.5495 136.655 59.3359C136.15 60.1224 135.439 60.7161 134.522 61.1172C133.611 61.5182 132.546 61.7187 131.327 61.7187H127.202V58.3438H130.452C130.962 58.3438 131.397 58.2812 131.756 58.1562C132.121 58.026 132.4 57.8203 132.592 57.5391C132.79 57.2578 132.889 56.8906 132.889 56.4375C132.889 55.9792 132.79 55.6068 132.592 55.3203C132.4 55.0286 132.121 54.8151 131.756 54.6797C131.397 54.5391 130.962 54.4687 130.452 54.4687H128.921V67H124.577ZM133.952 59.6562L137.952 67H133.233L129.327 59.6562H133.952ZM142.132 67V51H149.038C150.226 51 151.265 51.2161 152.156 51.6484C153.046 52.0807 153.739 52.7031 154.234 53.5156C154.728 54.3281 154.976 55.3021 154.976 56.4375C154.976 57.5833 154.721 58.5495 154.21 59.3359C153.705 60.1224 152.994 60.7161 152.077 61.1172C151.166 61.5182 150.101 61.7187 148.882 61.7187H144.757V58.3438H148.007C148.518 58.3438 148.952 58.2812 149.312 58.1562C149.676 58.026 149.955 57.8203 150.148 57.5391C150.346 57.2578 150.445 56.8906 150.445 56.4375C150.445 55.9792 150.346 55.6068 150.148 55.3203C149.955 55.0286 149.676 54.8151 149.312 54.6797C148.952 54.5391 148.518 54.4687 148.007 54.4687H146.476V67H142.132ZM151.507 59.6562L155.507 67H150.788L146.882 59.6562H151.507ZM175.187 59C175.187 60.7812 174.841 62.2839 174.148 63.5078C173.456 64.7266 172.521 65.651 171.344 66.2812C170.167 66.9062 168.854 67.2187 167.406 67.2187C165.948 67.2187 164.63 66.9036 163.453 66.2734C162.281 65.638 161.349 64.7109 160.656 63.4922C159.969 62.2682 159.625 60.7708 159.625 59C159.625 57.2187 159.969 55.7187 160.656 54.5C161.349 53.276 162.281 52.3516 163.453 51.7266C164.63 51.0964 165.948 50.7812 167.406 50.7812C168.854 50.7812 170.167 51.0964 171.344 51.7266C172.521 52.3516 173.456 53.276 174.148 54.5C174.841 55.7187 175.187 57.2187 175.187 59ZM170.719 59C170.719 58.0417 170.591 57.2344 170.336 56.5781C170.086 55.9167 169.713 55.4167 169.219 55.0781C168.729 54.7344 168.125 54.5625 167.406 54.5625C166.687 54.5625 166.081 54.7344 165.586 55.0781C165.096 55.4167 164.724 55.9167 164.469 56.5781C164.219 57.2344 164.094 58.0417 164.094 59C164.094 59.9583 164.219 60.7682 164.469 61.4297C164.724 62.0859 165.096 62.5859 165.586 62.9297C166.081 63.2682 166.687 63.4375 167.406 63.4375C168.125 63.4375 168.729 63.2682 169.219 62.9297C169.713 62.5859 170.086 62.0859 170.336 61.4297C170.591 60.7682 170.719 59.9583 170.719 59ZM180.057 67V51H186.963C188.151 51 189.19 51.2161 190.081 51.6484C190.971 52.0807 191.664 52.7031 192.159 53.5156C192.654 54.3281 192.901 55.3021 192.901 56.4375C192.901 57.5833 192.646 58.5495 192.135 59.3359C191.63 60.1224 190.919 60.7161 190.003 61.1172C189.091 61.5182 188.026 61.7187 186.807 61.7187H182.682V58.3438H185.932C186.443 58.3438 186.878 58.2812 187.237 58.1562C187.601 58.026 187.88 57.8203 188.073 57.5391C188.271 57.2578 188.37 56.8906 188.37 56.4375C188.37 55.9792 188.271 55.6068 188.073 55.3203C187.88 55.0286 187.601 54.8151 187.237 54.6797C186.878 54.5391 186.443 54.4687 185.932 54.4687H184.401V67H180.057ZM189.432 59.6562L193.432 67H188.713L184.807 59.6562H189.432Z" fill="black"/>
</svg>
