<svg width="128" height="128" viewBox="0 0 128 128" fill="none" xmlns="http://www.w3.org/2000/svg">
<rect width="128" height="128" rx="16" fill="#3754FA"/>
<g clip-path="url(#clip0_81_22)">
<path fill-rule="evenodd" clip-rule="evenodd" d="M55.7499 27C56.4739 27 57.1937 27.0175 57.9088 27.0525C57.9232 27.0533 57.9354 27.0418 57.9354 27.0274C57.9354 27.0134 57.9467 27.0022 57.9606 27.0022H97.9534C98.8076 27.0026 99.5001 27.7002 99.5001 28.5618C99.4999 28.9754 99.3371 29.3722 99.0471 29.6647L88.5604 40.2353H110.896C112.39 40.2353 113.756 41.1179 114.273 42.5204C116.036 47.3044 117 52.4798 117 57.8824C117 82.2478 97.4124 102 73.2501 102C72.5265 102 71.8071 101.981 71.0921 101.945C71.0771 101.945 71.0646 101.956 71.0646 101.971C71.0646 101.986 71.0529 101.998 71.0383 101.998H31.0466C30.1924 101.997 29.5 101.3 29.5 100.438C29.5001 100.024 29.6629 99.6278 29.9529 99.3353L40.4353 88.7648H18.1043C16.6096 88.7648 15.2438 87.882 14.727 86.4795C12.9642 81.6956 12 76.5204 12 71.1176C12 46.7522 31.5876 27 55.7499 27ZM70.7207 58.2292C67.1098 53.9681 61.7439 51.2648 55.7499 51.2648C44.8768 51.2648 36.0624 60.1532 36.0624 71.1176C36.0624 73.4385 36.4605 75.6651 37.1861 77.7352H51.3729L58.2793 70.7708C61.8902 75.0319 67.2561 77.7352 73.2501 77.7352C84.1232 77.7352 92.9376 68.8468 92.9376 57.8824C92.9376 55.5615 92.5395 53.3349 91.8139 51.2648H77.6271L70.7207 58.2292Z" fill="white"/>
</g>
<defs>
<clipPath id="clip0_81_22">
<rect width="105" height="75" fill="white" transform="translate(12 27)"/>
</clipPath>
</defs>
</svg>
