<svg width="284" height="60" viewBox="0 0 284 60" fill="none" xmlns="http://www.w3.org/2000/svg">
<g clip-path="url(#clip0_81_2)">
<path fill-rule="evenodd" clip-rule="evenodd" d="M33.3333 10C33.7194 10 34.1033 10.0093 34.4847 10.028C34.4924 10.0284 34.4989 10.0223 34.4989 10.0146C34.4989 10.0072 34.5049 10.0011 34.5123 10.0011H55.8418C56.2974 10.0014 56.6667 10.3735 56.6667 10.8329C56.6666 11.0536 56.5798 11.2652 56.4251 11.4212L50.8322 17.0588H62.7444C63.5415 17.0588 64.27 17.5296 64.5456 18.2776C65.4857 20.829 66 23.5892 66 26.4706C66 39.4655 55.5533 50 42.6667 50C42.2808 50 41.8971 49.9896 41.5158 49.9709C41.5078 49.9705 41.5011 49.9768 41.5011 49.9848C41.5011 49.9926 41.4949 49.9989 41.4871 49.9989H20.1582C19.7026 49.9986 19.3333 49.6265 19.3333 49.1671C19.3334 48.9464 19.4202 48.7348 19.5749 48.5788L25.1655 42.9412H13.2556C12.4585 42.9412 11.73 42.4704 11.4544 41.7224C10.5143 39.171 10 36.4109 10 33.5294C10 20.5345 20.4467 10 33.3333 10ZM41.3177 26.6556C39.3919 24.383 36.5301 22.9412 33.3333 22.9412C27.5343 22.9412 22.8333 27.6817 22.8333 33.5294C22.8333 34.7672 23.0456 35.9547 23.4326 37.0588H30.9989L34.6823 33.3444C36.6081 35.617 39.4699 37.0588 42.6667 37.0588C48.4657 37.0588 53.1667 32.3183 53.1667 26.4706C53.1667 25.2328 52.9544 24.0453 52.5674 22.9412H45.0011L41.3177 26.6556Z" fill="#3754FA"/>
</g>
<path d="M108.854 46.9023C108.8 46.9023 108.458 46.6494 107.829 46.1436C107.214 45.6514 106.407 44.9951 105.409 44.1748C104.425 43.3408 103.331 42.4248 102.128 41.4268C100.938 40.415 99.7285 39.3896 98.498 38.3506C97.2812 37.3115 96.1328 36.334 95.0527 35.418C93.9863 34.4883 93.0703 33.7021 92.3047 33.0596C91.5391 32.4033 91.0332 31.9727 90.7871 31.7676C90.7324 31.7266 90.6777 31.6855 90.623 31.6445C90.5684 31.5898 90.5068 31.5625 90.4385 31.5625C90.3428 31.5625 90.2812 31.624 90.2539 31.7471C90.2402 31.8564 90.2334 31.9453 90.2334 32.0137C90.2334 33.5859 90.2402 35.165 90.2539 36.751C90.2676 38.3232 90.2744 39.9023 90.2744 41.4883V44.9541C90.2744 45.6514 89.9258 46 89.2285 46H83.4043C82.707 46 82.3584 45.6377 82.3584 44.9131C82.3584 44.1885 82.3721 43.4639 82.3994 42.7393C82.4268 42.001 82.4473 41.2764 82.4609 40.5654C82.4883 39.0342 82.5088 37.5098 82.5225 35.9922C82.5498 34.4746 82.5635 32.9502 82.5635 31.4189C82.5635 27.9189 82.5225 24.4395 82.4404 20.9805C82.4268 20.1465 82.3994 19.3193 82.3584 18.499C82.3174 17.665 82.2969 16.8311 82.2969 15.9971C82.2969 15.9014 82.3516 15.8535 82.4609 15.8535C82.543 15.8535 82.6318 15.8877 82.7275 15.9561C85.7627 18.4307 88.7432 20.9736 91.6689 23.585C94.6084 26.1963 97.5615 28.7871 100.528 31.3574C100.583 31.3984 100.638 31.4463 100.692 31.501C100.761 31.542 100.822 31.5625 100.877 31.5625C100.986 31.5625 101.048 31.501 101.062 31.3779C101.075 31.2549 101.082 31.166 101.082 31.1113C101.082 28.8828 101.075 26.6611 101.062 24.4463C101.062 22.2314 101.062 20.0098 101.062 17.7812C101.062 17.084 101.41 16.7354 102.107 16.7354H107.85C108.547 16.7354 108.896 17.0977 108.896 17.8223C108.896 18.5469 108.882 19.2783 108.854 20.0166C108.827 20.7412 108.807 21.4658 108.793 22.1904C108.766 23.7217 108.738 25.2461 108.711 26.7637C108.697 28.2812 108.69 29.8057 108.69 31.3369C108.69 34.8369 108.731 38.3301 108.813 41.8164C108.841 42.6504 108.868 43.4844 108.896 44.3184C108.937 45.1387 108.957 45.9658 108.957 46.7998C108.957 46.8682 108.923 46.9023 108.854 46.9023ZM129.3 46C128.767 46 128.425 45.7197 128.275 45.1592C128.234 44.9951 128.165 44.7012 128.069 44.2773C127.987 43.8398 127.905 43.416 127.823 43.0059C127.755 42.582 127.721 42.3018 127.721 42.165C127.721 42.001 127.776 41.7959 127.885 41.5498C127.188 43.0264 126.244 44.2363 125.055 45.1797C123.865 46.1094 122.409 46.5742 120.687 46.5742C119.525 46.5742 118.431 46.3555 117.405 45.918C116.38 45.4668 115.546 44.8037 114.903 43.9287C114.275 43.0537 113.96 41.9873 113.96 40.7295C113.96 39.2119 113.974 37.7012 114.001 36.1973C114.028 34.6797 114.042 33.1621 114.042 31.6445C114.042 30.8926 114.035 30.1406 114.022 29.3887C114.022 28.623 114.022 27.8643 114.022 27.1123C114.022 26.4014 114.377 26.0459 115.088 26.0459H119.928C120.625 26.0459 120.974 26.3945 120.974 27.0918C120.974 28.9102 120.96 30.7285 120.933 32.5469C120.919 34.3652 120.926 36.1836 120.953 38.002C120.967 38.7812 121.172 39.335 121.569 39.6631C121.979 39.9912 122.56 40.1553 123.312 40.1553C124.2 40.1553 124.925 39.9297 125.486 39.4785C126.06 39.0137 126.511 38.4189 126.839 37.6943C127.167 36.9697 127.393 36.2041 127.516 35.3975C127.653 34.5908 127.721 33.8389 127.721 33.1416V27.0918C127.721 26.3945 128.069 26.0459 128.767 26.0459H133.586C134.297 26.0459 134.653 26.4014 134.653 27.1123C134.653 27.8916 134.646 28.6709 134.632 29.4502C134.632 30.2158 134.632 30.9883 134.632 31.7676C134.632 33.2578 134.639 34.748 134.653 36.2383C134.666 37.7148 134.687 39.1982 134.714 40.6885C134.728 41.3994 134.741 42.1104 134.755 42.8213C134.782 43.5186 134.796 44.2227 134.796 44.9336C134.796 45.6445 134.447 46 133.75 46H129.3ZM128.069 41.1396C128.042 41.1943 128.015 41.249 127.987 41.3037C128.028 41.2354 128.056 41.1807 128.069 41.1396ZM151.673 35.2949C151.673 35.3496 151.844 35.6641 152.186 36.2383C152.541 36.7988 152.979 37.4961 153.498 38.3301C154.032 39.1504 154.572 39.9912 155.118 40.8525C155.679 41.7002 156.164 42.4521 156.575 43.1084C156.998 43.751 157.272 44.168 157.395 44.3594C157.491 44.4961 157.579 44.6465 157.661 44.8105C157.743 44.9746 157.784 45.1455 157.784 45.3232C157.784 45.624 157.627 45.8154 157.313 45.8975C157.012 45.9658 156.745 46 156.513 46H150.217C149.862 46 149.568 45.8428 149.335 45.5283C148.911 44.9268 148.515 44.3047 148.146 43.6621C147.777 43.0059 147.38 42.377 146.956 41.7754C146.861 41.6113 146.765 41.5293 146.669 41.5293C146.601 41.5293 146.539 41.5635 146.485 41.6318C146.444 41.6865 146.409 41.7412 146.382 41.7959C146.04 42.3838 145.726 42.9922 145.439 43.6211C145.152 44.2363 144.837 44.8447 144.495 45.4463C144.277 45.8154 143.969 46 143.573 46H138.999C138.781 46 138.514 45.9658 138.2 45.8975C137.899 45.8154 137.748 45.624 137.748 45.3232C137.748 45.1592 137.783 44.9951 137.851 44.8311C137.933 44.667 138.015 44.5166 138.097 44.3799C138.206 44.2021 138.452 43.8125 138.835 43.2109C139.218 42.6094 139.656 41.9121 140.148 41.1191C140.64 40.3262 141.118 39.5469 141.583 38.7812C142.062 38.002 142.458 37.3525 142.773 36.833C143.087 36.2998 143.244 36.0059 143.244 35.9512C143.244 35.8965 143.087 35.6162 142.773 35.1104C142.458 34.5908 142.062 33.9551 141.583 33.2031C141.118 32.4375 140.633 31.665 140.127 30.8857C139.635 30.1064 139.198 29.4229 138.815 28.835C138.446 28.2334 138.206 27.8438 138.097 27.666C138.015 27.5293 137.933 27.3789 137.851 27.2148C137.783 27.0508 137.748 26.8867 137.748 26.7227C137.748 26.4082 137.899 26.2168 138.2 26.1484C138.5 26.0801 138.76 26.0459 138.979 26.0459H145.275C145.658 26.0459 145.958 26.2168 146.177 26.5586C146.245 26.668 146.389 26.9004 146.608 27.2559C146.826 27.6113 147.059 28.001 147.305 28.4248C147.565 28.835 147.797 29.1904 148.002 29.4912C148.221 29.792 148.365 29.9424 148.433 29.9424C148.515 29.9424 148.652 29.71 148.843 29.2451C149.034 28.7666 149.219 28.2676 149.397 27.748C149.588 27.2148 149.711 26.8799 149.766 26.7432C149.944 26.2783 150.272 26.0459 150.75 26.0459H155.221C155.453 26.0459 155.713 26.0869 156 26.1689C156.301 26.2373 156.451 26.4287 156.451 26.7432C156.451 26.9072 156.417 27.0645 156.349 27.2148C156.281 27.3652 156.205 27.5088 156.123 27.6455C155.412 28.8896 154.695 30.1338 153.97 31.3779C153.245 32.6221 152.514 33.8525 151.776 35.0693L151.694 35.1924C151.694 35.2061 151.687 35.2197 151.673 35.2334C151.673 35.2471 151.673 35.2676 151.673 35.2949ZM162.582 25.4717C162.582 24.2959 162.569 23.1133 162.541 21.9238C162.514 20.7344 162.514 19.5518 162.541 18.376C162.555 17.665 162.904 17.3096 163.587 17.3096H168.591C169.302 17.3096 169.658 17.665 169.658 18.376C169.658 19.5518 169.651 20.7344 169.637 21.9238C169.624 23.1133 169.617 24.2959 169.617 25.4717C169.617 25.6904 169.726 25.7998 169.945 25.7998H172.652C173.363 25.7998 173.718 26.1553 173.718 26.8662C173.718 27.5771 173.711 28.2881 173.698 28.999C173.698 29.6963 173.698 30.4004 173.698 31.1113C173.698 31.8086 173.349 32.1572 172.652 32.1572H169.945C169.712 32.1572 169.596 32.2666 169.596 32.4854C169.596 34.5498 169.603 36.6211 169.617 38.6992C169.644 40.7773 169.658 42.8555 169.658 44.9336C169.658 45.6445 169.302 46 168.591 46H163.587C162.876 46 162.521 45.6445 162.521 44.9336C162.521 42.8555 162.535 40.7773 162.562 38.6992C162.589 36.6211 162.603 34.5498 162.603 32.4854C162.603 32.2529 162.473 32.1367 162.213 32.1367C161.954 32.1367 161.653 32.1504 161.311 32.1777C160.983 32.1914 160.689 32.1367 160.429 32.0137C160.169 31.8906 160.04 31.5898 160.04 31.1113C160.04 30.4004 160.033 29.6963 160.019 28.999C160.019 28.2881 160.019 27.5771 160.019 26.8662C160.019 26.374 160.149 26.0664 160.409 25.9434C160.668 25.8203 160.962 25.7725 161.291 25.7998C161.632 25.8271 161.933 25.8408 162.193 25.8408C162.453 25.8271 162.582 25.7041 162.582 25.4717ZM178.926 46C178.229 46 177.881 45.6377 177.881 44.9131C177.881 44.2021 177.894 43.498 177.922 42.8008C177.949 42.0898 177.969 41.3789 177.983 40.668C178.01 39.123 178.031 37.5781 178.045 36.0332C178.058 34.4746 178.065 32.916 178.065 31.3574C178.065 29.8125 178.058 28.2676 178.045 26.7227C178.031 25.1641 178.01 23.6123 177.983 22.0674C177.969 21.3564 177.949 20.6523 177.922 19.9551C177.894 19.2441 177.881 18.5332 177.881 17.8223C177.881 17.0977 178.229 16.7354 178.926 16.7354H187.56C190.787 16.7354 193.631 17.3027 196.091 18.4375C198.566 19.5723 200.501 21.2744 201.895 23.5439C203.29 25.7998 203.987 28.6162 203.987 31.9932C203.987 34.8916 203.324 37.3936 201.998 39.499C200.672 41.5908 198.874 43.1973 196.604 44.3184C194.348 45.4395 191.819 46 189.016 46H178.926ZM185.694 39.2119H187.827C190.397 39.2119 192.407 38.5967 193.856 37.3662C195.319 36.1357 196.05 34.1875 196.05 31.5215C196.05 30.0176 195.845 28.6572 195.435 27.4404C195.025 26.21 194.328 25.2393 193.343 24.5283C192.373 23.8037 191.047 23.4414 189.365 23.4414H185.694C185.735 28.6914 185.735 33.9482 185.694 39.2119ZM215.963 46.5742C213.994 46.5742 212.374 46.082 211.102 45.0977C209.845 44.1133 208.915 42.835 208.313 41.2627C207.712 39.6904 207.411 38.0156 207.411 36.2383C207.411 34.4199 207.725 32.6973 208.354 31.0703C208.983 29.4297 209.947 28.0967 211.246 27.0713C212.545 26.0322 214.206 25.5127 216.229 25.5127C218.157 25.5127 219.921 26.0869 221.52 27.2354C221.63 27.3174 221.719 27.3584 221.787 27.3584C221.937 27.3584 222.047 27.249 222.115 27.0303C222.183 26.8115 222.279 26.5928 222.402 26.374C222.539 26.1553 222.771 26.0459 223.099 26.0459H228.001C228.712 26.0459 229.067 26.4014 229.067 27.1123C229.067 27.8916 229.06 28.6709 229.047 29.4502C229.047 30.2158 229.047 30.9883 229.047 31.7676C229.047 33.2578 229.054 34.748 229.067 36.2383C229.081 37.7148 229.101 39.1982 229.129 40.6885C229.142 41.3994 229.156 42.1104 229.17 42.8213C229.197 43.5186 229.211 44.2227 229.211 44.9336C229.211 45.6445 228.862 46 228.165 46H222.812C222.484 46 222.306 45.8701 222.279 45.6104C222.252 45.3506 222.252 45.0977 222.279 44.8516C222.306 44.5918 222.224 44.4619 222.033 44.4619C221.937 44.4619 221.814 44.5234 221.664 44.6465C220.803 45.2754 219.907 45.7539 218.977 46.082C218.048 46.4102 217.043 46.5742 215.963 46.5742ZM218.403 39.8682C219.128 39.8682 219.832 39.7383 220.515 39.4785C221.199 39.2051 221.753 38.7539 222.177 38.125V33.0801C221.753 32.4785 221.172 32.0547 220.433 31.8086C219.709 31.5625 218.991 31.4395 218.28 31.4395C217.077 31.4395 216.134 31.8906 215.45 32.793C214.766 33.6953 214.425 34.707 214.425 35.8281C214.425 36.9492 214.807 37.9062 215.573 38.6992C216.339 39.4785 217.282 39.8682 218.403 39.8682ZM238.644 46.6357C237.686 46.6357 236.716 46.4854 235.731 46.1846C234.747 45.8838 233.893 45.4053 233.168 44.749C232.949 44.5439 232.84 44.3184 232.84 44.0723C232.84 43.8672 232.901 43.5391 233.024 43.0879C233.161 42.6367 233.305 42.1787 233.455 41.7139C233.619 41.249 233.735 40.9004 233.804 40.668C233.872 40.4629 233.961 40.2715 234.07 40.0938C234.193 39.9023 234.378 39.8066 234.624 39.8066C234.938 39.8066 235.403 39.9775 236.019 40.3193C236.634 40.6611 237.297 40.832 238.008 40.832C238.404 40.832 238.794 40.7568 239.177 40.6064C239.56 40.4424 239.751 40.1211 239.751 39.6426C239.751 39.1914 239.553 38.8223 239.156 38.5352C238.76 38.248 238.309 38.002 237.803 37.7969C237.311 37.5918 236.9 37.4004 236.572 37.2227C235.506 36.6211 234.686 35.8213 234.111 34.8232C233.537 33.8115 233.25 32.6973 233.25 31.4805C233.25 30.0996 233.558 28.9717 234.173 28.0967C234.788 27.208 235.615 26.5586 236.654 26.1484C237.693 25.7246 238.849 25.5127 240.12 25.5127C240.763 25.5127 241.467 25.5811 242.232 25.7178C242.998 25.8408 243.675 26.0391 244.263 26.3125C244.659 26.4902 244.857 26.7637 244.857 27.1328C244.857 27.2285 244.81 27.4746 244.714 27.8711C244.632 28.2676 244.536 28.6709 244.427 29.0811C244.331 29.4912 244.263 29.7715 244.222 29.9219C244.167 30.1406 244.078 30.332 243.955 30.4961C243.846 30.6602 243.654 30.7422 243.381 30.7422C243.08 30.7422 242.759 30.6875 242.417 30.5781C242.075 30.4551 241.713 30.3936 241.33 30.3936C240.947 30.3936 240.558 30.4756 240.161 30.6396C239.765 30.8037 239.566 31.125 239.566 31.6035C239.566 32.0273 239.751 32.417 240.12 32.7725C240.489 33.1279 240.94 33.4561 241.474 33.7568C242.02 34.0576 242.547 34.3447 243.053 34.6182C243.572 34.8916 243.976 35.1514 244.263 35.3975C244.851 35.9033 245.261 36.5391 245.493 37.3047C245.726 38.0566 245.842 38.8086 245.842 39.5605C245.842 40.9688 245.534 42.2061 244.919 43.2725C244.304 44.3252 243.449 45.1523 242.355 45.7539C241.275 46.3418 240.038 46.6357 238.644 46.6357ZM250.476 46C249.778 46 249.43 45.6445 249.43 44.9336C249.43 44.1953 249.437 43.457 249.45 42.7188C249.478 41.9668 249.498 41.2148 249.512 40.4629C249.539 38.9043 249.56 37.3457 249.573 35.7871C249.587 34.2285 249.594 32.6631 249.594 31.0908C249.594 29.4639 249.587 27.8369 249.573 26.21C249.56 24.5693 249.539 22.9355 249.512 21.3086C249.498 20.5293 249.478 19.7568 249.45 18.9912C249.423 18.2119 249.409 17.4326 249.409 16.6533C249.409 15.9287 249.765 15.5664 250.476 15.5664H255.377C256.074 15.5664 256.423 15.915 256.423 16.6123L256.484 27.8506C256.484 27.8916 256.491 28.001 256.505 28.1787C256.519 28.3564 256.573 28.4453 256.669 28.4453C256.751 28.4453 256.84 28.3975 256.936 28.3018C257.031 28.2061 257.1 28.1309 257.141 28.0762C257.92 27.2148 258.768 26.5654 259.684 26.1279C260.613 25.6904 261.666 25.4717 262.842 25.4717C263.977 25.4717 265.05 25.7041 266.062 26.1689C267.087 26.6201 267.914 27.2832 268.543 28.1582C269.186 29.0195 269.507 30.0654 269.507 31.2959C269.507 32.8271 269.514 34.3652 269.527 35.9102C269.541 37.4414 269.562 38.9795 269.589 40.5244C269.603 41.2627 269.616 42.001 269.63 42.7393C269.657 43.4775 269.671 44.209 269.671 44.9336C269.671 45.6445 269.316 46 268.605 46H263.621C262.924 46 262.575 45.6514 262.575 44.9541L262.514 34.0439C262.514 33.3467 262.357 32.8135 262.042 32.4443C261.741 32.0615 261.222 31.8701 260.484 31.8701C259.636 31.8701 258.952 32.1162 258.433 32.6084C257.927 33.1006 257.537 33.7295 257.264 34.4951C257.004 35.2607 256.826 36.0469 256.731 36.8535C256.649 37.6602 256.608 38.3848 256.608 39.0273C256.608 39.7246 256.608 40.4219 256.608 41.1191C256.608 41.8164 256.601 42.5137 256.587 43.2109C256.587 43.498 256.587 43.792 256.587 44.0928C256.601 44.3799 256.594 44.667 256.567 44.9541C256.526 45.6514 256.177 46 255.521 46H250.476Z" fill="#211A43"/>
<path d="M274 18C274 19.6569 272.656 21 271 21C269.343 21 268 19.6569 268 18C268 16.3432 269.343 15 271 15C272.656 15 274 16.3432 274 18Z" fill="#211A43"/>
<defs>
<clipPath id="clip0_81_2">
<rect width="56" height="40" fill="white" transform="translate(10 10)"/>
</clipPath>
</defs>
</svg>
